<?xml version="1.0" standalone="no"?>
<!DOCTYPE svg PUBLIC "-//W3C//DTD SVG 20010904//EN"
 "http://www.w3.org/TR/2001/REC-SVG-20010904/DTD/svg10.dtd">
<svg version="1.0" xmlns="http://www.w3.org/2000/svg"
 width="196.000000pt" height="150.000000pt" viewBox="0 0 196.000000 150.000000"
 preserveAspectRatio="xMidYMid meet">

<g transform="translate(0.000000,150.000000) scale(0.100000,-0.100000)"
fill="#000000" stroke="none">
<path d="M425 1439 c-85 -10 -240 -46 -277 -65 -14 -7 -36 -26 -47 -40 -21
-26 -21 -34 -21 -553 0 -565 -1 -555 53 -595 32 -24 49 -24 250 -6 218 20 347
-5 492 -94 62 -38 134 -42 181 -9 61 43 159 85 231 99 90 17 164 18 344 2 157
-13 188 -6 220 46 18 29 19 60 19 559 l0 529 -33 33 c-34 34 -95 56 -222 80
-179 34 -346 28 -541 -20 l-99 -23 -100 24 c-171 40 -302 50 -450 33z m290
-149 c39 -6 96 -18 128 -27 l57 -16 0 -498 c0 -275 -2 -499 -5 -499 -3 0 -33
11 -65 25 -131 55 -285 70 -527 49 l-83 -6 0 465 0 466 93 20 c50 11 103 22
117 24 52 8 218 6 285 -3z m923 -19 l92 -23 0 -465 0 -465 -84 7 c-46 3 -144
7 -217 7 -143 -1 -246 -20 -328 -61 -22 -12 -43 -21 -46 -21 -3 0 -5 224 -5
499 l0 498 59 17 c98 27 170 35 306 32 91 -2 158 -10 223 -25z"/>
</g>
</svg>
